<svg version="1.1" id="Layer_1" xmlns="http://www.w3.org/2000/svg" x="0" y="0" width="835" height="266" viewBox="182.775 261.445 835 266" xml:space="preserve"><path fill="#00A69C" d="M231.917 415.959v15.283H190.22v-63.958h40.924v15.229h-23.381v9.419h21.005v14.45h-21.005v9.576h24.154zm52.062-.85v16.132h-40.614v-63.958h17.853v47.825h22.761zm50.934.85v15.283h-41.699v-63.958h40.929v15.229h-23.381v9.419h21.003v14.45h-21.003v9.576h24.151zm41.206 16.902c-19.465 0-33.999-14.413-33.999-33.545 0-19.236 14.533-33.648 33.999-33.648 16.765 0 29.749 11.06 32.346 27.279H390.61c-2.195-6.554-7.718-10.819-14.453-10.819-9.049 0-15.698 7.286-15.698 17.188 0 9.869 6.649 17.047 15.698 17.047 7.1 0 12.678-4.628 14.473-11.735h18.019c-2.429 16.812-15.495 28.233-32.53 28.233zm89.071-49.712h-17.37v48.092h-17.693v-48.092h-17.381v-15.865h52.444v15.865zm33.221 28.525h-6.392v19.568H474.4v-63.958h27.72c13.792 0 23.789 9.264 23.789 22.629 0 7.854-3.84 14.287-10.156 18.069l12.698 23.259h-19.667l-10.373-19.567zm-6.391-14.843h8.048c4.929 0 7.763-2.967 7.763-6.965 0-4-2.833-6.921-7.763-6.921h-8.048v13.886zm45.485-29.547h17.847v63.958h-17.847v-63.958zm49.36 15.94v10.183h20.544v15.421h-20.544v22.415h-17.78v-63.958h40.702v15.939h-22.922zm33.629-15.94h17.852v63.958h-17.852v-63.958zm62.254 65.577c-19.471 0-34-14.413-34-33.545 0-19.236 14.529-33.648 34-33.648 16.766 0 29.74 11.06 32.346 27.279h-17.85c-2.195-6.554-7.729-10.819-14.457-10.819-9.053 0-15.699 7.286-15.699 17.188 0 9.869 6.646 17.047 15.699 17.047 7.096 0 12.68-4.628 14.465-11.735h18.02c-2.427 16.812-15.487 28.233-32.524 28.233zm78.627-12.015h-22.666l-3.549 10.396h-18.873l25.119-63.958h17.227l25.68 63.958h-19.408l-3.53-10.396zm-11.366-33.596l-7.002 19.815h14.072l-7.07-19.815zm83.27-4.101h-17.367v48.092h-17.707v-48.092h-17.369v-15.865h52.443v15.865zm9.215-15.865h17.842v63.958h-17.842v-63.958zm63.459 65.577c-20.559 0-35.229-14.051-35.229-33.599 0-19.546 14.672-33.596 35.229-33.596 20.516 0 35.135 13.997 35.135 33.596-.001 19.601-14.62 33.599-35.135 33.599zm0-16.399c9.74 0 16.783-7.188 16.783-17.2 0-10.008-7.045-17.189-16.783-17.189-9.729 0-16.881 7.234-16.881 17.189 0 9.958 7.152 17.2 16.881 17.2zm102.521-49.178v63.958h-14.568l-25.408-34.714v34.714h-17.074v-63.958h15.426l24.555 33.551v-33.551h17.069z"/><path fill="#262261" d="M450.408 306.432c.553.935 1.363 1.013 2.229.895 3.382-.463 6.768-.914 10.157-1.361.292-.04.594-.027 1.003-.035-1.824 9.184-3.619 18.229-5.417 27.272 1.303-2.149 2.478-4.359 3.631-6.574 2.057-3.943 4.104-7.892 6.159-11.833l8.576-15.606s1.08-1.435.089-3.151c.008-.002.012-.002.014-.005-.553-.886-1.201-1.117-1.996-1.021-3.609.448-7.222.875-10.837 1.314l-1.1.133 5.162-25.802c.093-.27.194-.536.29-.806a.749.749 0 00-.149.091l.017-.073-.033.088a1.072 1.072 0 00-.276.368c-3.836 7.262-7.673 14.525-11.5 21.798-2.014 3.822-4.007 7.65-6.002 11.478-.483.91-.583 1.874-.017 2.83zm-182.276-21.559l-13.539 35.38h-9.085l-13.828-35.38h11.118l7.225 21.989 7.046-21.989h11.063zm67.041 26.922v8.458h-23.064v-35.38h22.639v8.423H321.81v5.212h11.622v7.993H321.81v5.295l13.363-.001zm76.292-26.922v35.38h-9.831v-13.582h-10.62v13.582h-9.829v-35.38h9.829v12.764h10.62v-12.764h9.831zm121.355 36.273c-10.77 0-18.812-7.968-18.812-18.56 0-10.638 8.042-18.61 18.812-18.61 9.272 0 16.456 6.12 17.89 15.091h-9.875c-1.21-3.631-4.27-5.984-7.995-5.984-5.007 0-8.685 4.029-8.685 9.503 0 5.46 3.678 9.429 8.685 9.429 3.926 0 7.014-2.555 8.008-6.487h9.967c-1.345 9.304-8.569 15.615-17.994 15.615v.003zm85.541-9.822v8.929h-22.467v-35.38h9.875v26.452l12.592-.001zm67.857.471v8.458h-23.064v-35.38h22.637v8.423h-12.934v5.212h11.621v7.993h-11.621v5.295l13.361-.001zm25.283 188.8v8.451h-23.066v-35.377h22.641v8.422h-12.934v5.209h11.621v7.996h-11.621v5.299h13.359zm65.247 8.451l-5.816-10.871-5.885 10.871h-11.063l10.645-18.418-10.047-16.959h10.992l5.305 10.008 5.35-10.008h10.85l-9.936 17.139 10.645 18.238h-11.04zm82.914-22.597c0 7.424-5.588 12.828-13.109 12.828h-5.295v9.77h-9.77V473.67h15.064c7.522-.001 13.11 5.363 13.11 12.779zm-10.022.019c0-2.512-1.689-4.291-4.256-4.291h-4.127v8.584h4.127c2.565 0 4.256-1.771 4.256-4.293zm53.014 4.891c0-10.814 8.123-18.582 19.49-18.582 11.348 0 19.43 7.734 19.43 18.582 0 10.842-8.082 18.584-19.43 18.584-11.367 0-19.49-7.772-19.49-18.584zm28.773 0c0-5.537-3.896-9.514-9.283-9.514-5.383 0-9.338 4.006-9.338 9.514s3.955 9.514 9.338 9.514c5.387 0 9.283-3.975 9.283-9.514z"/><path fill="none" d="M651.74 495.662H190.22"/><path fill="#262261" d="M190.22 491.869h461.52v7.578H190.22zm.383-190.342h21.788v7.58h-21.788zm528.436 0h289.436v7.58H719.039z"/><path fill="none" d="M1007.156 495.662h-47.373"/><path fill="#262261" d="M959.783 491.869h47.373v7.578h-47.373z"/></svg>